<mxfile host="app.diagrams.net" modified="2021-11-15T07:51:10.539Z" agent="5.0 (Windows)" etag="7lA7suH29XipmRqLwecF" version="15.7.3" type="github">
  <diagram id="1Kj0MweQuP5Q3PxkDB6_" name="Page-1">
    <mxGraphModel dx="870" dy="604" grid="1" gridSize="10" guides="1" tooltips="1" connect="1" arrows="1" fold="1" page="1" pageScale="1" pageWidth="827" pageHeight="1169" math="0" shadow="0">
      <root>
        <mxCell id="0" />
        <mxCell id="1" parent="0" />
      </root>
    </mxGraphModel>
  </diagram>
</mxfile>
